HIERARCHY
ROOT Hips
{
  OFFSET 1.44925e-005 102.336 -0.101585
  CHANNELS 6 Xposition Yposition Zposition Zrotation Xrotation Yrotation
  JOINT LeftUpLeg
  {
    OFFSET 8.9458 -8.66707 0.101652
    CHANNELS 3 Zrotation Xrotation Yrotation
    JOINT LeftLeg
    {
      OFFSET 0 -44.4227 1.3727
      CHANNELS 3 Zrotation Xrotation Yrotation
      JOINT LeftFoot
      {
        OFFSET -0.253549 -42.0924 -1.46059
        CHANNELS 3 Zrotation Xrotation Yrotation
        JOINT LeftToes
        {
          OFFSET -0.04 -4.41509 8.4991
          CHANNELS 3 Zrotation Xrotation Yrotation
          End Site
          {
            OFFSET 0.08 -0.047448 9.77979
          }
        }
      }
    }
  }
  JOINT Spine
  {
    OFFSET 0 11.8905 0
    CHANNELS 3 Zrotation Xrotation Yrotation
    JOINT Spine1
    {
      OFFSET 0 25.6574 0.127663
      CHANNELS 3 Zrotation Xrotation Yrotation
      JOINT RightShoulder
      {
        OFFSET -8.99 -0.362252 -0.22
        CHANNELS 3 Zrotation Xrotation Yrotation
        JOINT RightArm
        {
          OFFSET -10.2827 -0.00338 0.322123
          CHANNELS 3 Zrotation Xrotation Yrotation
          JOINT RightForeArm
          {
            OFFSET -26.364 0.099144 -1.42434
            CHANNELS 3 Zrotation Xrotation Yrotation
            JOINT RightHand
            {
              OFFSET -22.0324 0.085362 1.02216
              CHANNELS 3 Zrotation Xrotation Yrotation
              End Site
              {
                OFFSET -13.3284 -0.6 1.50291
              }
            }
          }
        }
      }
      JOINT LeftShoulder1
      {
        OFFSET 8.99 -0.362252 -0.22
        CHANNELS 3 Zrotation Xrotation Yrotation
        JOINT LeftArm
        {
          OFFSET 10.2827 -0.00337999 0.322123
          CHANNELS 3 Zrotation Xrotation Yrotation
          JOINT LeftForeArm
          {
            OFFSET 26.2597 0.099144 -1.42434
            CHANNELS 3 Zrotation Xrotation Yrotation
            JOINT LeftHand
            {
              OFFSET 22.0902 0.085362 1.02216
              CHANNELS 3 Zrotation Xrotation Yrotation
              End Site
              {
                OFFSET 13.419 -0.6 1.50291
              }
            }
          }
        }
      }
      JOINT Head
      {
        OFFSET 0 8.73416 0.011341
        CHANNELS 3 Zrotation Xrotation Yrotation
        End Site
        {
          OFFSET -0.29 12.7742 2.51395
        }
      }
    }
  }
  JOINT RightUpLeg
  {
    OFFSET -8.9458 -8.66707 0.101652
    CHANNELS 3 Zrotation Xrotation Yrotation
    JOINT RightLeg
    {
      OFFSET 0 -44.4227 1.3727
      CHANNELS 3 Zrotation Xrotation Yrotation
      JOINT RightFoot
      {
        OFFSET 0.253549 -42.0924 -1.46059
        CHANNELS 3 Zrotation Xrotation Yrotation
        JOINT RightToes
        {
          OFFSET 0.04 -4.41509 8.4991
          CHANNELS 3 Zrotation Xrotation Yrotation
          End Site
          {
            OFFSET -0.08 -0.137448 9.77979
          }
        }
      }
    }
  }
}
MOTION
Frames:	12
Frame Time:	0.0333333
11.2933 102.233 2.24338 -2.74139 -0.996832 -92.9513 -1.07707 2.05991 1.41683 1.02961 8.80487 17.7517 -3.40431 -11.3898 -0.0495841 -1.36218e-009 8.75216e-006 -1.47296e-008 0.719132 4.69896 -0.344718 -0.763855 -1.8838 -0.153594 37.0975 1.81469 0.195667 42.304 -22.3231 7.50549 10.0589 38.4727 4.61591 -3.10405 9.84453 -2.95819 -44.4457 3.5993 -3.53783 -28.0575 -14.6982 3.49962 -4.47642 35.0165 -14.595 5.82328 9.61819 -0.917488 -0.117115 -0.813084 -15.4776 -0.851063 2.46184 -3.4512 -1.03982 9.92972 -8.07596 4.67606 -14.191 0.0561281 0.0462048 0.000530889 0.662642 
11.3012 102.233 2.23824 -2.74098 -1.00396 -92.9301 -1.07747 2.0442 1.4081 1.03217 8.82227 17.7234 -3.41375 -11.3757 -0.0495816 -1.36218e-009 8.75216e-006 -1.47296e-008 0.711514 4.67509 -0.339571 -0.76138 -1.81691 -0.149162 37.084 1.81469 0.195667 42.3488 -22.3832 7.54366 10.1076 38.4658 4.52281 -3.1515 9.84424 -2.99183 -44.4953 3.60535 -3.54212 -28.0252 -14.6269 3.45141 -4.45075 34.9841 -14.6369 5.82328 9.61819 -0.917488 -0.184851 -1.0315 -14.7184 -0.856399 2.45874 -3.45249 -1.03713 9.93154 -8.08978 4.69473 -14.191 0.0561281 0.0462048 0.000530889 0.662642 
11.3137 102.233 2.22471 -2.72959 -1.0234 -92.8998 -1.089 2.012 1.3856 1.04044 8.83931 17.6971 -3.4196 -11.3546 -0.0495779 -1.36218e-009 8.75216e-006 -1.47296e-008 0.670466 4.63082 -0.321355 -0.731865 -1.70819 -0.136284 37.0485 1.81469 0.196257 42.4194 -22.4457 7.58733 10.1698 38.4242 4.41024 -3.24759 9.84362 -3.06148 -44.5677 3.61492 -3.54982 -28.0053 -14.4945 3.36783 -4.3557 34.9056 -14.7718 5.82328 9.61819 -0.917488 -0.262513 -1.54645 -13.4546 -0.869475 2.4365 -3.45303 -1.03577 9.94142 -8.1116 4.77905 -14.189 0.0561276 0.0462048 0.000530889 0.662642 
11.3279 102.233 2.20292 -2.70482 -1.03803 -92.869 -1.09362 1.97174 1.36496 1.05388 8.83976 17.6773 -3.42584 -11.3334 -0.0495743 -1.36218e-009 8.75216e-006 -1.47296e-008 0.591449 4.62016 -0.297588 -0.641804 -1.65776 -0.128186 36.9668 1.81469 0.200146 42.5069 -22.4819 7.59939 10.1886 38.4275 4.36259 -3.30376 9.84351 -3.07366 -44.6605 3.62725 -3.55978 -27.9801 -14.302 3.30866 -4.26063 34.7007 -14.9393 5.82328 9.61819 -0.917488 -0.264246 -2.16866 -12.271 -0.862978 2.39845 -3.4339 -1.04363 9.95097 -8.15823 4.82335 -14.1786 0.056125 0.0462048 0.000530889 0.662642 
11.341 102.233 2.17831 -2.67862 -1.03387 -92.8357 -1.07897 1.93923 1.35657 1.07372 8.82313 17.6566 -3.44432 -11.3131 -0.0495707 -1.36218e-009 8.75216e-006 -1.47296e-008 0.515441 4.64973 -0.280599 -0.518692 -1.67575 -0.132868 36.8362 1.81469 0.209748 42.6296 -22.5255 7.59125 10.1648 38.5237 4.36581 -3.28804 9.84433 -2.98167 -44.8014 3.64402 -3.57098 -27.8938 -14.0897 3.29452 -4.22887 34.4163 -15.0551 5.82328 9.61819 -0.917488 -0.281212 -2.65392 -11.2508 -0.829275 2.37213 -3.39928 -1.05074 9.93634 -8.22933 4.78502 -14.161 0.0561206 0.0462048 0.000530889 0.662642 
11.3492 102.233 2.15782 -2.66431 -1.01778 -92.8046 -1.05421 1.92131 1.36092 1.09207 8.81188 17.6345 -3.46494 -11.3014 -0.0495687 -1.36218e-009 8.75216e-006 -1.47296e-008 0.477119 4.68634 -0.270847 -0.418536 -1.70543 -0.141331 36.6871 1.81469 0.222 42.781 -22.5763 7.58648 10.1299 38.6251 4.38733 -3.29262 9.84534 -2.86415 -44.9711 3.66268 -3.58149 -27.7659 -13.9781 3.30416 -4.22894 34.2552 -15.1004 5.82328 9.61819 -0.917488 -0.467535 -2.92373 -10.3281 -0.795252 2.37703 -3.37822 -1.0402 9.89376 -8.28774 4.74112 -14.1429 0.0561162 0.0462048 0.000530889 0.662642 
11.355 102.233 2.14308 -2.66685 -1.00735 -92.7897 -1.03276 1.91187 1.37584 1.09409 8.82874 17.6099 -3.47198 -11.3053 -0.0495694 -1.36218e-009 8.75216e-006 -1.47296e-008 0.476069 4.73741 -0.257291 -0.380142 -1.74043 -0.135293 36.575 1.81469 0.228695 42.9017 -22.5795 7.58581 10.0937 38.6401 4.43988 -3.35474 9.84564 -2.82814 -45.0998 3.67657 -3.58829 -27.6734 -14.0126 3.31412 -4.20074 34.3223 -15.115 5.82328 9.61819 -0.917488 -0.771259 -3.09051 -9.59501 -0.784959 2.40219 -3.3857 -1.01507 9.84758 -8.29752 4.73491 -14.1332 0.0561138 0.0462048 0.000530889 0.662642 
11.3657 102.233 2.13172 -2.68021 -1.01232 -92.802 -1.0227 1.90775 1.39256 1.07914 8.85775 17.5933 -3.47439 -11.313 -0.0495707 -1.36218e-009 8.75216e-006 -1.47296e-008 0.505076 4.8278 -0.234611 -0.421384 -1.80759 -0.105295 36.548 1.81469 0.225073 42.9359 -22.5137 7.59325 10.048 38.6027 4.53359 -3.34592 9.84512 -2.88956 -45.1431 3.6817 -3.59123 -27.6434 -14.0856 3.31263 -4.15732 34.4927 -15.121 5.82328 9.61819 -0.917488 -0.957703 -3.27223 -9.11843 -0.796253 2.41635 -3.40725 -0.996304 9.83268 -8.259 4.72458 -14.1384 0.0561151 0.0462048 0.000530889 0.662642 
11.3823 102.233 2.1227 -2.68629 -1.03085 -92.8366 -1.03072 1.90479 1.39344 1.06628 8.86131 17.6104 -3.47362 -11.3032 -0.049569 -1.36218e-009 8.75216e-006 -1.47296e-008 0.558757 4.91368 -0.210632 -0.52716 -1.86998 -0.0614144 36.5981 1.81469 0.218665 42.9045 -22.4306 7.63981 10.0096 38.577 4.61928 -3.18306 9.84425 -2.99044 -45.1228 3.68375 -3.59287 -27.6418 -14.1117 3.28927 -4.16404 34.6101 -15.0868 5.82328 9.61819 -0.917488 -0.938736 -3.50702 -8.73002 -0.818922 2.39077 -3.42675 -0.992155 9.86819 -8.19973 4.69981 -14.1533 0.0561188 0.0462048 0.000530889 0.662642 
11.3993 102.233 2.11567 -2.66715 -1.05484 -92.8771 -1.05436 1.88563 1.37189 1.06652 8.83812 17.6691 -3.46953 -11.2769 -0.0495645 -1.36218e-009 8.75216e-006 -1.47296e-008 0.61222 4.93991 -0.192033 -0.639161 -1.88993 -0.0210461 36.66 1.81469 0.216056 42.8736 -22.3702 7.72946 10.0076 38.5338 4.64864 -3.00147 9.84334 -3.06804 -45.0823 3.68462 -3.59337 -27.6509 -14.147 3.25295 -4.23577 34.6806 -14.9898 5.82328 9.61819 -0.917488 -0.884247 -3.81279 -8.27504 -0.84784 2.31857 -3.44453 -0.989877 9.94174 -8.1427 4.70022 -14.1667 0.0561221 0.0462048 0.000530889 0.662642 
11.4162 102.233 2.10808 -2.63125 -1.075 -92.9147 -1.07637 1.84401 1.34531 1.0657 8.82297 17.7401 -3.45657 -11.2566 -0.049561 -1.36218e-009 8.75216e-006 -1.47296e-008 0.636347 4.95993 -0.172743 -0.706854 -1.93788 0.0123785 36.6799 1.81469 0.218958 42.8683 -22.3126 7.80279 10.0309 38.4518 4.64546 -2.95369 9.84275 -3.08149 -45.0454 3.68435 -3.5929 -27.6728 -14.2317 3.24253 -4.31019 34.7712 -14.8807 5.82328 9.61819 -0.917488 -0.940884 -4.18734 -7.83821 -0.875425 2.22688 -3.46535 -0.979266 10.0179 -8.08757 4.70712 -14.1764 0.0561245 0.0462048 0.000530889 0.662642 
11.4367 102.233 2.09799 -2.61464 -1.08826 -92.9499 -1.08585 1.81307 1.33214 1.0597 8.82737 17.7901 -3.43564 -11.2517 -0.0495601 -1.36218e-009 8.75216e-006 -1.47296e-008 0.631144 5.05858 -0.145357 -0.737281 -2.07316 0.0471529 36.6582 1.81469 0.221225 42.8775 -22.2537 7.81999 10.0398 38.4255 4.65027 -3.00938 9.84243 -3.02967 -45.0324 3.68295 -3.59162 -27.6759 -14.2718 3.2756 -4.33054 34.8381 -14.8398 5.82328 9.61819 -0.917488 -1.03241 -4.55916 -7.5141 -0.896211 2.16651 -3.49112 -0.964177 10.0655 -8.02258 4.6653 -14.1902 0.0553256 0.0462048 0.000530889 0.662642 
